<svg width="500" height="121" viewBox="0 0 500 121" fill="none" xmlns="http://www.w3.org/2000/svg">
<path d="M60.5297 0H60.402C27.1019 0 0 27.0716 0 60.3492C0 75.9257 5.9389 90.1431 15.6749 100.861L60.5297 9.47428L105.113 100.893C114.849 90.175 120.804 75.9417 120.804 60.3492C120.804 27.1155 93.7859 0.0717446 60.5297 0V0Z" fill="#67C6C2"/>
<path d="M60.402 60.3492L33.7987 114.536H33.8146C41.8475 118.49 50.8655 120.714 60.402 120.714H60.5297C69.9665 120.698 78.9008 118.506 86.8579 114.608L60.5297 60.6083L60.402 60.3492V60.3492Z" fill="#67C6C2"/>
<path d="M166.796 34.0508C166.796 34.0508 152.014 64.8093 149.059 75.7424C148.632 77.3208 148.58 79.5289 150.806 82.04C152.712 84.1923 156.382 85.5156 156.382 85.5156L159.955 76.6671L161.024 74.0564H182.646L187.32 85.5156H199.083L177.166 34.0548H166.792L166.796 34.0508ZM165.041 64.1237L166.832 59.7513L167.143 59.002L171.857 47.6105L178.626 64.1237H165.037H165.041Z" fill="#67C6C2"/>
<path d="M229.687 34.4175H218.435V85.5156H229.687V34.4175Z" fill="#67C6C2"/>
<path d="M278.997 56.0206L265.555 34.4175H253.43V85.5156H264.53V52.3736L278.777 73.9807H279.068L293.459 52.1543V85.5156H304.563V34.4175H292.434L278.997 56.0206Z" fill="#67C6C2"/>
<path d="M343.028 34.4175H331.776V85.5156H368.519V75.3677H343.028V34.4175Z" fill="#67C6C2"/>
<path d="M405.476 34.0508L383.563 85.5116H395.03L399.705 74.0524H421.327L426.001 85.5116H437.763L415.846 34.0508H405.472H405.476ZM403.721 64.1237L410.514 47.5547L417.306 64.1237H403.717H403.721Z" fill="#67C6C2"/>
<path d="M497.455 63.3585C495.76 61.4373 493.431 59.9187 490.475 58.7947C491.389 58.3084 492.25 57.7265 493.048 57.0449C493.85 56.3634 494.552 55.5742 495.154 54.6734C495.756 53.7726 496.239 52.7642 496.606 51.6442C496.965 50.5281 497.152 49.2367 497.152 47.7739V47.6265C497.152 43.5888 495.652 40.3763 492.665 37.9928C489.674 35.6092 485.558 34.4175 480.309 34.4175H456.609V85.5156H480.891C483.763 85.5156 486.371 85.2246 488.728 84.6387C491.086 84.0568 493.104 83.1799 494.783 82.0121C496.462 80.8442 497.75 79.3814 498.648 77.6317C499.545 75.8779 500 73.8332 500 71.4975V71.354C500 67.9461 499.146 65.2836 497.451 63.3585H497.455ZM467.565 44.2704H478.669C481.059 44.2704 482.881 44.7208 484.15 45.6216C485.418 46.5224 486.052 47.8258 486.052 49.5277V49.6712C486.052 51.5724 485.322 52.9475 483.858 53.7965C482.399 54.6495 480.424 55.0759 477.943 55.0759H467.569V44.2704H467.565ZM488.9 70.1104C488.9 72.0077 488.19 73.4067 486.782 74.3075C485.366 75.2083 483.42 75.6587 480.935 75.6587H467.565V64.4147H480.568C483.488 64.4147 485.609 64.9129 486.926 65.9134C488.238 66.9098 488.896 68.261 488.896 69.963V70.1104H488.9Z" fill="#67C6C2"/>
</svg>
